<svg id="svg" version="1.1" xmlns="http://www.w3.org/2000/svg" xmlns:xlink="http://www.w3.org/1999/xlink" width="400" height="400" viewBox="0, 0, 400,400"><g id="svgg"><path id="path0" d="M0.000 200.000 L 0.000 400.000 199.400 400.000 L 398.800 400.000 398.800 200.000 L 398.800 0.000 199.400 0.000 L 0.000 0.000 0.000 200.000 M245.435 162.922 C 246.386 164.028,246.939 175.981,246.438 184.600 C 246.374 185.700,246.447 188.279,246.601 190.332 L 246.879 194.063 249.140 191.693 C 254.477 186.096,259.261 180.948,259.529 180.515 C 261.731 176.952,272.800 176.664,272.800 180.170 C 272.800 181.417,270.739 184.800,269.978 184.800 C 269.784 184.800,269.395 185.238,269.113 185.773 C 268.536 186.867,266.033 189.831,262.900 193.131 C 260.431 195.732,260.237 196.904,261.869 199.378 C 262.457 200.270,263.330 201.630,263.809 202.400 C 264.288 203.170,265.252 204.694,265.952 205.787 C 266.651 206.879,267.674 208.724,268.224 209.887 C 268.774 211.049,269.385 212.000,269.583 212.000 C 269.780 212.000,270.260 212.720,270.648 213.600 C 271.036 214.480,271.496 215.200,271.670 215.200 C 272.499 215.200,273.999 219.164,273.547 220.157 C 271.706 224.198,259.600 222.031,259.600 217.661 C 259.600 217.238,259.166 216.608,258.636 216.260 C 258.105 215.913,257.467 215.008,257.216 214.250 C 256.966 213.491,256.517 212.777,256.218 212.662 C 255.920 212.548,255.557 211.914,255.412 211.255 C 255.267 210.595,254.878 209.831,254.548 209.557 C 254.218 209.283,253.684 208.550,253.363 207.929 C 252.469 206.200,251.360 206.482,248.973 209.047 C 246.664 211.528,246.400 212.311,246.400 216.681 C 246.400 221.354,244.405 222.739,238.631 222.073 C 236.338 221.809,236.233 221.745,235.343 220.060 L 234.424 218.319 234.427 192.460 C 234.430 159.937,234.125 161.428,240.735 161.666 C 244.255 161.792,244.526 161.865,245.435 162.922 M70.208 178.568 C 70.738 178.916,71.616 179.200,72.160 179.200 C 76.883 179.200,80.400 184.365,77.692 187.325 C 77.252 187.806,76.772 188.596,76.625 189.081 C 76.096 190.827,73.186 192.522,72.224 191.644 C 71.771 191.230,70.995 190.769,70.500 190.619 C 70.004 190.469,69.413 189.998,69.186 189.573 C 68.819 188.888,68.316 188.800,64.786 188.800 L 60.800 188.800 60.800 190.019 C 60.800 191.294,62.231 192.926,63.800 193.442 C 64.240 193.587,65.056 194.026,65.614 194.418 C 66.171 194.810,67.341 195.260,68.214 195.417 C 70.096 195.755,74.800 197.924,74.800 198.454 C 74.800 198.658,75.115 198.935,75.500 199.070 C 76.507 199.423,78.800 201.661,78.800 202.291 C 78.800 202.585,79.066 202.927,79.392 203.052 C 81.200 203.746,81.243 213.872,79.443 214.880 C 79.089 215.078,78.800 215.574,78.800 215.983 C 78.800 217.006,75.064 220.278,73.505 220.621 C 72.805 220.775,71.523 221.270,70.656 221.722 C 68.210 222.997,59.648 222.983,57.477 221.700 C 56.640 221.205,55.348 220.800,54.608 220.800 C 53.755 220.800,52.826 220.433,52.073 219.800 C 51.419 219.250,50.699 218.800,50.473 218.800 C 49.572 218.800,47.616 216.690,47.387 215.472 C 46.763 212.148,52.322 206.374,54.311 208.280 C 56.648 210.518,63.298 212.264,66.461 211.471 C 67.335 211.251,68.775 208.800,68.029 208.800 C 67.864 208.800,67.523 208.350,67.273 207.800 C 67.022 207.250,66.498 206.798,66.109 206.795 C 65.719 206.793,64.625 206.347,63.678 205.806 C 62.731 205.265,61.040 204.700,59.919 204.551 C 58.798 204.403,57.587 203.993,57.228 203.641 C 56.869 203.288,55.906 202.688,55.088 202.306 C 54.269 201.925,53.600 201.450,53.600 201.250 C 53.600 201.050,53.162 200.777,52.627 200.642 C 52.091 200.508,51.539 200.039,51.400 199.599 C 51.260 199.160,50.969 198.800,50.753 198.800 C 50.536 198.800,50.087 198.125,49.755 197.300 C 49.422 196.475,48.877 195.203,48.543 194.473 C 46.238 189.429,51.501 179.200,56.402 179.200 C 56.748 179.200,57.744 178.825,58.615 178.366 C 60.599 177.322,68.517 177.460,70.208 178.568 M115.800 178.400 C 116.663 178.840,117.703 179.200,118.111 179.200 C 119.052 179.200,120.504 179.954,120.920 180.658 C 121.096 180.956,121.509 181.200,121.837 181.200 C 122.480 181.200,126.800 185.143,126.800 185.730 C 126.800 185.925,127.250 186.619,127.800 187.273 C 128.350 187.927,128.800 188.712,128.800 189.018 C 128.800 189.325,129.205 190.346,129.700 191.288 C 131.044 193.845,131.073 206.921,129.739 209.400 C 129.266 210.280,128.652 211.602,128.375 212.339 C 127.477 214.724,120.763 220.800,119.025 220.800 C 118.559 220.800,117.782 221.078,117.297 221.417 C 115.111 222.948,106.590 223.051,104.077 221.576 C 103.350 221.149,102.396 220.800,101.957 220.800 C 101.519 220.800,100.649 220.535,100.024 220.212 C 98.481 219.414,98.413 219.758,98.404 228.400 C 98.394 238.039,97.469 239.308,90.954 238.610 C 86.092 238.089,86.307 239.503,86.285 207.920 L 86.267 181.240 87.339 179.620 L 88.411 178.000 91.645 178.000 C 95.236 178.000,97.247 178.689,98.287 180.276 L 98.914 181.233 99.776 180.423 C 100.250 179.977,101.260 179.498,102.019 179.357 C 102.779 179.217,103.768 178.875,104.217 178.597 C 106.276 177.321,113.445 177.199,115.800 178.400 M164.039 178.521 C 164.568 178.862,165.684 179.266,166.520 179.419 C 167.355 179.571,168.255 179.902,168.520 180.153 C 168.784 180.405,169.524 180.947,170.166 181.357 C 172.056 182.569,174.800 185.255,174.800 185.893 C 174.800 186.218,175.250 187.019,175.800 187.673 C 176.350 188.327,176.800 189.287,176.800 189.808 C 176.800 190.328,177.140 191.350,177.556 192.077 C 178.079 192.991,178.389 194.574,178.561 197.200 C 179.070 204.973,179.439 204.799,162.520 204.799 L 149.641 204.800 150.258 206.300 C 150.907 207.879,152.676 210.000,153.343 210.000 C 153.560 210.000,154.085 210.315,154.511 210.700 C 155.842 211.905,162.161 211.610,164.166 210.249 C 165.016 209.672,165.917 209.200,166.167 209.200 C 166.417 209.200,166.930 208.840,167.307 208.400 C 168.745 206.721,171.340 207.610,174.681 210.926 C 175.166 211.406,175.855 212.046,176.213 212.346 C 177.449 213.382,173.813 218.720,171.826 218.787 C 171.620 218.794,171.061 219.167,170.583 219.616 C 170.106 220.065,169.014 220.528,168.157 220.647 C 167.301 220.765,165.880 221.253,165.000 221.731 C 162.246 223.227,151.200 222.805,151.200 221.204 C 151.200 221.040,150.467 220.807,149.571 220.687 C 146.715 220.304,140.774 215.294,139.549 212.236 C 139.277 211.556,138.736 210.582,138.347 210.072 C 137.959 209.561,137.515 208.304,137.361 207.278 C 137.207 206.253,136.838 204.831,136.541 204.119 C 135.831 202.422,135.833 196.693,136.543 195.280 C 136.841 194.686,137.197 193.617,137.332 192.905 C 137.658 191.192,140.288 185.600,140.769 185.600 C 140.976 185.600,141.258 185.247,141.395 184.815 C 141.741 183.725,146.662 180.095,148.596 179.504 C 149.474 179.235,150.824 178.682,151.596 178.275 C 153.414 177.315,162.446 177.494,164.039 178.521 M209.989 178.507 C 210.533 178.888,211.433 179.201,211.989 179.202 C 212.545 179.204,213.468 179.449,214.040 179.748 C 214.976 180.236,215.315 180.178,217.440 179.161 C 220.903 177.505,225.417 177.490,227.251 179.129 L 228.515 180.258 228.593 198.629 C 228.687 220.460,228.743 219.738,226.852 221.023 C 223.701 223.164,217.200 222.018,217.200 219.321 C 217.200 218.919,216.722 219.046,215.465 219.783 C 214.511 220.342,213.183 220.800,212.514 220.800 C 211.845 220.800,211.082 221.060,210.818 221.378 C 209.522 222.940,199.841 223.032,198.085 221.499 C 197.708 221.170,196.733 220.782,195.917 220.636 C 194.513 220.384,193.554 219.771,191.330 217.700 C 190.799 217.205,190.237 216.800,190.082 216.800 C 189.706 216.800,187.600 214.144,187.600 213.670 C 187.600 213.466,187.339 213.082,187.021 212.817 C 186.703 212.553,186.141 211.496,185.772 210.468 C 185.404 209.441,184.810 207.970,184.453 207.200 C 183.505 205.159,183.516 195.152,184.467 193.304 C 184.834 192.591,185.259 191.421,185.410 190.704 C 185.664 189.501,187.373 186.630,189.087 184.525 C 190.329 183.002,194.871 179.600,195.664 179.600 C 196.083 179.600,197.095 179.295,197.913 178.922 C 200.598 177.697,200.961 177.636,205.000 177.725 C 208.042 177.792,209.237 177.980,209.989 178.507 M337.699 178.497 C 338.201 178.826,339.239 179.226,340.006 179.385 C 342.259 179.854,348.800 184.870,348.800 186.129 C 348.800 186.324,349.250 187.019,349.800 187.673 C 350.350 188.327,350.800 189.125,350.800 189.447 C 350.800 189.769,351.205 190.580,351.700 191.250 C 353.220 193.305,353.073 206.942,351.500 209.797 C 350.895 210.895,350.400 211.929,350.400 212.093 C 350.400 213.069,345.084 218.800,344.179 218.800 C 343.929 218.800,343.417 219.139,343.042 219.554 C 342.666 219.969,341.788 220.422,341.089 220.562 C 340.391 220.702,339.051 221.188,338.112 221.643 C 335.901 222.713,327.793 222.648,326.541 221.551 C 326.133 221.194,325.150 220.785,324.355 220.643 C 323.560 220.501,322.587 220.028,322.193 219.592 C 320.567 217.796,320.449 218.315,320.321 227.836 C 320.173 238.908,320.456 238.400,314.418 238.400 C 308.826 238.400,309.026 238.745,308.900 228.858 C 308.774 218.867,308.398 217.721,305.927 219.800 C 305.273 220.350,304.449 220.800,304.096 220.800 C 303.742 220.800,302.675 221.176,301.725 221.636 C 299.511 222.708,292.195 222.650,290.941 221.551 C 290.533 221.194,289.557 220.786,288.771 220.646 C 287.394 220.400,283.200 216.923,283.200 216.027 C 283.200 215.824,282.912 215.369,282.560 215.017 C 282.208 214.665,281.712 213.167,281.458 211.688 C 281.203 210.210,280.817 208.730,280.598 208.400 C 280.361 208.043,280.146 202.444,280.067 194.600 C 279.899 177.896,279.860 178.000,286.245 178.000 C 292.455 178.000,292.354 177.745,292.387 193.487 C 292.425 211.228,292.489 211.400,299.000 211.399 L 302.600 211.399 304.823 209.167 C 308.022 205.957,308.400 203.999,308.400 190.631 L 308.400 180.485 309.597 179.204 L 310.793 177.923 314.555 178.061 C 318.586 178.210,319.672 178.702,320.449 180.733 L 320.805 181.667 321.974 180.683 C 322.617 180.142,323.831 179.572,324.671 179.416 C 325.512 179.260,326.470 178.893,326.800 178.600 C 328.065 177.476,336.027 177.401,337.699 178.497 M328.034 188.670 C 327.282 188.775,326.112 189.270,325.434 189.771 C 324.755 190.272,323.885 190.793,323.500 190.928 C 323.115 191.064,322.800 191.424,322.800 191.729 C 322.800 192.034,322.368 192.749,321.840 193.319 C 319.625 195.709,319.593 204.757,321.792 206.956 C 322.347 207.510,322.800 208.126,322.800 208.325 C 322.800 210.860,333.426 212.746,335.875 210.645 C 340.642 206.555,341.374 205.158,341.389 200.134 C 341.399 196.533,341.297 195.927,340.500 194.850 C 340.005 194.180,339.600 193.466,339.600 193.263 C 339.600 193.059,338.835 192.235,337.900 191.430 C 336.965 190.625,335.907 189.695,335.548 189.364 C 334.859 188.727,330.505 188.324,328.034 188.670 M103.800 189.642 C 103.360 190.060,102.370 190.987,101.600 191.701 C 96.454 196.475,97.226 206.124,103.053 209.851 C 105.730 211.564,112.044 211.899,113.400 210.400 C 113.798 209.960,114.321 209.600,114.562 209.600 C 114.803 209.600,115.522 208.945,116.161 208.145 C 121.352 201.639,120.325 195.151,113.243 189.700 C 111.634 188.462,105.084 188.421,103.800 189.642 M153.632 189.766 C 153.133 190.298,152.291 190.841,151.762 190.974 C 151.151 191.127,150.800 191.504,150.800 192.008 C 150.800 192.443,150.624 192.800,150.409 192.800 C 150.169 192.800,150.191 193.181,150.466 193.784 L 150.914 194.768 158.035 194.684 C 164.691 194.606,165.170 194.550,165.359 193.830 C 165.588 192.961,164.464 190.800,163.783 190.800 C 163.539 190.800,162.917 190.350,162.400 189.800 C 161.001 188.311,155.021 188.288,153.632 189.766 M201.800 189.812 C 201.140 190.353,200.390 190.797,200.134 190.798 C 196.598 190.813,194.713 204.300,197.836 207.234 C 198.366 207.732,198.800 208.378,198.800 208.670 C 198.800 208.961,199.045 209.200,199.344 209.200 C 199.643 209.200,200.588 209.687,201.444 210.282 C 207.574 214.544,218.133 207.187,216.674 199.671 C 216.011 196.251,214.963 193.301,214.134 192.519 C 213.620 192.035,213.200 191.450,213.200 191.219 C 213.200 190.989,212.944 190.800,212.631 190.800 C 212.318 190.800,211.527 190.350,210.873 189.800 C 209.121 188.326,203.604 188.334,201.800 189.812 " stroke="none" fill="#2c2c2c" fill-rule="evenodd"></path><path id="path1" d="M237.029 164.229 C 236.386 164.871,236.016 217.734,236.643 219.367 C 236.955 220.182,243.265 220.297,243.901 219.500 C 244.120 219.225,244.387 217.250,244.494 215.112 C 244.710 210.776,244.751 210.692,248.855 206.310 C 251.628 203.350,252.489 203.434,254.798 206.892 C 255.679 208.211,256.400 209.396,256.400 209.524 C 256.400 209.652,256.820 210.397,257.334 211.178 C 257.847 211.960,259.226 214.094,260.397 215.920 C 261.569 217.746,262.847 219.411,263.237 219.620 C 264.121 220.093,270.404 220.112,271.143 219.644 C 271.714 219.282,271.437 216.800,270.825 216.800 C 270.559 216.800,269.135 214.584,265.857 209.067 C 265.448 208.379,264.773 207.384,264.357 206.854 C 263.941 206.325,263.600 205.735,263.600 205.543 C 263.600 205.350,263.060 204.448,262.400 203.537 C 261.740 202.625,261.200 201.637,261.200 201.340 C 261.200 201.043,261.043 200.800,260.851 200.800 C 260.659 200.800,260.148 199.983,259.716 198.985 C 258.282 195.671,258.569 195.128,266.169 186.800 C 270.815 181.709,271.183 181.012,269.532 180.436 C 267.051 179.571,260.800 180.175,260.800 181.280 C 260.800 181.456,259.738 182.724,258.441 184.100 C 257.143 185.475,254.663 188.220,252.929 190.200 C 248.167 195.639,247.781 196.004,246.365 196.410 C 244.507 196.943,244.612 197.812,244.478 180.674 C 244.371 166.998,244.274 164.924,243.716 164.307 C 242.849 163.350,237.965 163.293,237.029 164.229 M61.800 179.570 C 61.360 179.745,60.100 180.019,59.000 180.177 C 57.067 180.455,53.356 182.401,52.677 183.492 C 52.499 183.778,52.028 184.325,51.630 184.706 C 50.003 186.267,49.526 193.345,50.887 195.738 C 52.275 198.180,53.039 199.125,54.168 199.800 C 57.386 201.723,60.534 203.222,62.276 203.661 C 69.753 205.544,72.438 209.980,67.622 212.496 C 64.781 213.980,58.235 213.354,55.999 211.385 C 53.877 209.515,51.557 210.007,49.900 212.677 C 48.506 214.923,48.520 215.181,50.100 216.419 C 57.528 222.239,72.084 222.169,76.555 216.291 C 80.692 210.851,79.670 202.925,74.485 200.244 C 73.778 199.879,73.200 199.438,73.200 199.265 C 73.200 199.093,72.310 198.723,71.223 198.445 C 70.136 198.166,69.038 197.687,68.783 197.380 C 68.528 197.072,67.663 196.710,66.860 196.573 C 66.057 196.437,64.947 196.007,64.392 195.619 C 63.838 195.230,62.982 194.785,62.490 194.629 C 58.591 193.391,57.552 189.227,60.721 187.538 C 62.601 186.536,70.800 187.517,70.800 188.744 C 70.800 189.470,73.307 189.970,74.114 189.405 C 76.918 187.441,77.488 183.638,75.174 182.337 C 74.308 181.851,73.600 181.322,73.600 181.162 C 73.600 181.001,72.835 180.752,71.900 180.607 C 70.965 180.462,68.903 180.086,67.317 179.772 C 64.120 179.138,62.987 179.096,61.800 179.570 M106.600 179.828 C 105.500 180.134,104.256 180.388,103.835 180.392 C 103.414 180.397,102.238 180.934,101.220 181.587 C 98.728 183.186,96.653 183.373,96.461 182.016 C 96.249 180.512,95.260 180.027,92.376 180.013 C 87.783 179.990,88.214 177.383,88.111 205.868 C 87.992 238.796,87.711 236.565,91.978 236.565 C 96.303 236.565,96.162 236.896,96.400 226.219 C 96.510 221.294,96.706 217.159,96.835 217.031 C 97.169 216.698,99.606 217.595,100.855 218.511 C 103.455 220.416,109.339 221.148,114.519 220.209 C 134.712 216.551,134.638 184.124,114.428 180.006 C 109.893 179.082,109.329 179.069,106.600 179.828 M152.347 180.022 C 150.667 180.428,148.597 181.214,147.747 181.767 C 145.486 183.237,142.800 185.355,142.800 185.667 C 142.800 185.817,142.345 186.479,141.790 187.139 C 141.234 187.800,140.578 188.939,140.333 189.670 C 140.088 190.402,139.655 191.270,139.372 191.600 C 137.870 193.350,137.829 206.626,139.320 208.336 C 139.638 208.701,140.108 209.652,140.363 210.448 C 143.151 219.139,160.292 223.809,169.407 218.360 C 174.340 215.411,175.430 213.704,173.448 212.029 C 169.772 208.922,169.152 208.607,168.447 209.488 C 163.815 215.277,149.979 213.164,147.940 206.356 C 147.004 203.235,146.997 203.236,162.000 203.173 C 177.554 203.107,176.800 203.344,176.800 198.525 C 176.800 185.365,165.522 176.831,152.347 180.022 M203.000 179.453 C 198.469 180.360,196.093 181.055,195.440 181.663 C 195.010 182.063,194.319 182.499,193.903 182.631 C 190.163 183.818,186.405 191.043,185.389 199.000 C 183.247 215.778,203.684 227.483,216.257 216.678 C 217.204 215.864,218.400 216.867,218.400 218.475 C 218.400 219.527,219.671 220.000,222.497 220.000 C 226.959 220.000,226.600 221.746,226.600 200.050 C 226.600 178.023,227.063 179.946,221.802 180.104 L 218.604 180.200 217.907 181.682 L 217.211 183.164 215.705 182.542 C 214.877 182.200,213.930 181.690,213.600 181.408 C 213.270 181.127,211.194 180.515,208.986 180.048 C 204.974 179.200,204.499 179.153,203.000 179.453 M114.764 188.605 C 119.788 191.319,122.770 201.796,119.700 205.950 C 119.205 206.620,118.800 207.277,118.800 207.411 C 118.800 207.804,116.230 210.785,115.884 210.793 C 115.710 210.797,115.019 211.205,114.350 211.700 C 110.959 214.205,102.545 212.684,99.474 209.011 C 93.438 201.790,96.650 188.895,104.763 187.777 C 105.773 187.638,107.138 187.395,107.796 187.238 C 109.107 186.924,113.103 187.708,114.764 188.605 M162.704 188.038 C 166.224 189.372,169.029 194.647,166.824 195.787 C 165.114 196.672,149.384 196.691,148.411 195.810 C 146.322 193.919,150.363 188.447,154.424 187.668 C 156.827 187.207,161.003 187.394,162.704 188.038 M211.609 188.206 C 217.559 191.276,220.209 200.142,217.026 206.326 C 216.425 207.495,215.677 208.549,215.366 208.668 C 215.055 208.788,214.800 209.106,214.800 209.375 C 214.800 211.561,206.973 213.543,202.645 212.453 C 192.672 209.942,190.955 194.242,200.047 188.713 C 202.543 187.195,209.094 186.908,211.609 188.206 " stroke="none" fill="#ed9223" fill-rule="evenodd"></path><path id="path2" d="M327.816 179.822 C 325.625 180.373,323.735 180.964,323.616 181.135 C 322.440 182.828,318.800 183.439,318.800 181.944 C 318.800 180.502,317.662 180.026,314.180 180.013 C 309.716 179.995,310.000 179.196,309.998 191.780 C 309.996 200.271,309.875 202.831,309.435 203.673 C 309.127 204.263,308.756 205.289,308.610 205.952 C 307.031 213.143,294.505 215.411,291.822 208.992 C 290.766 206.464,290.400 201.961,290.400 191.503 C 290.400 179.222,290.686 180.000,286.169 180.000 C 281.584 180.000,281.918 178.689,282.070 196.077 L 282.200 211.000 283.312 213.264 C 286.897 220.563,298.327 223.544,304.800 218.868 C 307.003 217.276,309.211 216.251,309.599 216.639 C 309.821 216.861,310.056 220.992,310.144 226.215 C 310.335 237.569,310.041 236.800,314.197 236.800 C 318.937 236.800,318.800 237.128,318.800 225.771 C 318.800 217.677,318.867 216.740,319.433 216.957 C 319.781 217.091,320.290 217.200,320.564 217.200 C 320.838 217.200,321.859 217.725,322.831 218.368 C 327.861 221.688,337.705 221.691,342.468 218.372 C 349.165 213.707,351.709 208.708,351.718 200.200 C 351.722 195.820,351.594 194.716,350.909 193.200 C 350.461 192.210,349.966 190.978,349.809 190.462 C 349.124 188.221,345.387 183.954,342.145 181.711 C 340.943 180.879,335.519 179.246,333.000 178.957 C 332.340 178.882,330.007 179.271,327.816 179.822 M334.266 187.729 C 337.881 188.667,341.546 192.453,342.394 196.126 C 343.209 199.656,342.399 206.800,341.185 206.800 C 340.973 206.800,340.795 207.025,340.789 207.300 C 340.773 208.064,338.804 210.119,336.834 211.427 C 334.780 212.791,327.643 213.184,325.625 212.043 C 312.063 204.374,319.353 183.861,334.266 187.729 " stroke="none" fill="#ececec" fill-rule="evenodd"></path><path id="path3" d="M398.800 200.000 C 398.800 377.511,398.867 400.000,399.400 400.000 C 399.933 400.000,400.000 377.511,400.000 200.000 C 400.000 22.489,399.933 0.000,399.400 0.000 C 398.867 0.000,398.800 22.489,398.800 200.000 M328.600 177.869 C 327.940 177.978,327.130 178.307,326.800 178.600 C 326.470 178.893,325.512 179.260,324.671 179.416 C 323.831 179.572,322.617 180.142,321.974 180.683 L 320.805 181.667 320.449 180.733 C 319.672 178.702,318.586 178.210,314.555 178.061 L 310.793 177.923 309.597 179.204 L 308.400 180.485 308.400 190.631 C 308.400 203.999,308.022 205.957,304.823 209.167 L 302.600 211.399 299.000 211.399 C 292.489 211.400,292.425 211.228,292.387 193.487 C 292.354 177.662,292.493 178.000,285.986 178.000 C 282.792 178.000,282.689 178.031,281.332 179.388 L 279.943 180.777 280.072 194.328 C 280.159 203.598,280.342 208.055,280.651 208.439 C 280.898 208.748,281.225 210.026,281.377 211.279 C 281.532 212.562,281.991 213.989,282.426 214.542 C 282.852 215.084,283.200 215.722,283.200 215.962 C 283.200 216.908,287.341 220.390,288.771 220.646 C 289.557 220.786,290.533 221.194,290.941 221.551 C 292.195 222.650,299.511 222.708,301.725 221.636 C 302.675 221.176,303.742 220.800,304.096 220.800 C 304.449 220.800,305.273 220.350,305.927 219.800 C 308.398 217.721,308.774 218.867,308.900 228.858 C 309.026 238.745,308.826 238.400,314.418 238.400 C 320.456 238.400,320.173 238.908,320.321 227.836 C 320.449 218.315,320.567 217.796,322.193 219.592 C 322.587 220.028,323.560 220.501,324.355 220.643 C 325.150 220.785,326.133 221.194,326.541 221.551 C 327.793 222.648,335.901 222.713,338.112 221.643 C 339.051 221.188,340.391 220.702,341.089 220.562 C 341.788 220.422,342.666 219.969,343.042 219.554 C 343.417 219.139,343.929 218.800,344.179 218.800 C 345.084 218.800,350.400 213.069,350.400 212.093 C 350.400 211.929,350.895 210.895,351.500 209.797 C 353.073 206.942,353.220 193.305,351.700 191.250 C 351.205 190.580,350.800 189.769,350.800 189.447 C 350.800 189.125,350.350 188.327,349.800 187.673 C 349.250 187.019,348.800 186.324,348.800 186.129 C 348.800 184.870,342.259 179.854,340.006 179.385 C 339.239 179.226,338.201 178.826,337.699 178.497 C 336.758 177.880,330.953 177.480,328.600 177.869 M337.545 179.969 C 339.385 180.449,341.455 181.233,342.145 181.711 C 345.387 183.954,349.124 188.221,349.809 190.462 C 349.966 190.978,350.461 192.210,350.909 193.200 C 352.348 196.382,352.092 204.474,350.423 208.549 C 346.492 218.153,337.838 222.725,328.055 220.368 C 326.046 219.884,323.860 219.047,322.831 218.368 C 321.859 217.725,320.838 217.200,320.564 217.200 C 320.290 217.200,319.781 217.091,319.433 216.957 C 318.867 216.740,318.800 217.677,318.800 225.771 C 318.800 237.128,318.937 236.800,314.197 236.800 C 310.041 236.800,310.335 237.569,310.144 226.215 C 310.056 220.992,309.821 216.861,309.599 216.639 C 309.211 216.251,307.003 217.276,304.800 218.868 C 298.327 223.544,286.897 220.563,283.312 213.264 L 282.200 211.000 282.070 196.077 C 281.918 178.689,281.584 180.000,286.169 180.000 C 290.686 180.000,290.400 179.222,290.400 191.503 C 290.400 201.961,290.766 206.464,291.822 208.992 C 294.505 215.411,307.031 213.143,308.610 205.952 C 308.756 205.289,309.127 204.263,309.435 203.673 C 309.875 202.831,309.996 200.271,309.998 191.780 C 310.000 179.196,309.716 179.995,314.180 180.013 C 317.662 180.026,318.800 180.502,318.800 181.944 C 318.800 183.439,322.440 182.828,323.616 181.135 C 323.982 180.609,331.726 178.811,333.000 178.957 C 333.660 179.033,335.705 179.488,337.545 179.969 M270.302 180.641 C 270.579 180.766,270.689 181.056,270.547 181.286 C 270.405 181.516,270.507 181.631,270.774 181.542 C 271.507 181.298,271.340 180.613,270.521 180.507 C 270.125 180.456,270.026 180.516,270.302 180.641 M327.645 187.632 C 316.634 189.795,315.278 206.192,325.625 212.043 C 327.643 213.184,334.780 212.791,336.834 211.427 C 338.804 210.119,340.773 208.064,340.789 207.300 C 340.795 207.025,340.973 206.800,341.185 206.800 C 341.826 206.800,342.801 202.809,342.790 200.227 C 342.754 191.216,336.381 185.917,327.645 187.632 M335.548 189.364 C 335.907 189.695,336.965 190.625,337.900 191.430 C 338.835 192.235,339.600 193.059,339.600 193.263 C 339.600 193.466,340.005 194.180,340.500 194.850 C 341.297 195.927,341.399 196.533,341.389 200.134 C 341.374 205.158,340.642 206.555,335.875 210.645 C 333.426 212.746,322.800 210.860,322.800 208.325 C 322.800 208.126,322.347 207.510,321.792 206.956 C 319.593 204.757,319.625 195.709,321.840 193.319 C 322.368 192.749,322.800 192.034,322.800 191.729 C 322.800 191.424,323.115 191.064,323.500 190.928 C 323.885 190.793,324.755 190.272,325.434 189.771 C 327.403 188.317,334.123 188.047,335.548 189.364 M176.901 200.200 C 176.905 201.080,176.987 201.393,177.083 200.895 C 177.179 200.398,177.175 199.678,177.075 199.295 C 176.975 198.913,176.896 199.320,176.901 200.200 M52.646 209.424 C 52.327 210.256,52.464 210.455,53.090 210.068 C 53.361 209.901,53.422 209.559,53.235 209.256 C 52.984 208.850,52.852 208.888,52.646 209.424 " stroke="none" fill="#7c7c79" fill-rule="evenodd"></path><path id="path4" d="M236.136 162.466 C 234.507 164.227,234.430 165.576,234.427 192.460 L 234.424 218.319 235.343 220.060 C 236.233 221.745,236.338 221.809,238.631 222.073 C 244.405 222.739,246.400 221.354,246.400 216.681 C 246.400 212.311,246.664 211.528,248.973 209.047 C 251.360 206.482,252.469 206.200,253.363 207.929 C 253.684 208.550,254.218 209.283,254.548 209.557 C 254.878 209.831,255.267 210.595,255.412 211.255 C 255.557 211.914,255.920 212.548,256.218 212.662 C 256.517 212.777,256.966 213.491,257.216 214.250 C 257.467 215.008,258.105 215.913,258.636 216.260 C 259.166 216.608,259.600 217.238,259.600 217.661 C 259.600 222.031,271.706 224.198,273.547 220.157 C 273.999 219.164,272.499 215.200,271.670 215.200 C 271.496 215.200,271.036 214.480,270.648 213.600 C 270.260 212.720,269.780 212.000,269.583 212.000 C 269.385 212.000,268.774 211.049,268.224 209.887 C 267.674 208.724,266.651 206.879,265.952 205.787 C 265.252 204.694,264.288 203.170,263.809 202.400 C 263.330 201.630,262.457 200.270,261.869 199.378 C 260.237 196.904,260.431 195.732,262.900 193.131 C 266.033 189.831,268.536 186.867,269.113 185.773 C 269.395 185.238,269.784 184.800,269.978 184.800 C 270.739 184.800,272.800 181.417,272.800 180.170 C 272.800 176.664,261.731 176.952,259.529 180.515 C 259.261 180.948,254.477 186.096,249.140 191.693 L 246.879 194.063 246.601 190.332 C 246.447 188.279,246.374 185.700,246.438 184.600 C 246.939 175.981,246.386 164.028,245.435 162.922 C 244.031 161.289,237.520 160.969,236.136 162.466 M243.716 164.307 C 244.274 164.924,244.371 166.998,244.478 180.674 C 244.612 197.812,244.507 196.943,246.365 196.410 C 247.781 196.004,248.167 195.639,252.929 190.200 C 254.663 188.220,257.143 185.475,258.441 184.100 C 259.738 182.724,260.800 181.448,260.800 181.264 C 260.800 180.133,269.540 179.574,271.197 180.598 C 271.406 180.728,270.799 181.681,269.846 182.717 C 258.394 195.171,258.200 195.482,259.716 198.985 C 260.148 199.983,260.659 200.800,260.851 200.800 C 261.043 200.800,261.200 201.043,261.200 201.340 C 261.200 201.637,261.740 202.625,262.400 203.537 C 263.060 204.448,263.600 205.350,263.600 205.543 C 263.600 205.735,263.941 206.325,264.357 206.854 C 264.773 207.384,265.448 208.385,265.857 209.079 C 268.566 213.682,270.215 216.263,270.708 216.672 C 271.020 216.931,271.304 217.741,271.338 218.472 L 271.400 219.800 268.000 219.918 C 263.158 220.086,263.102 220.058,260.526 216.092 C 259.278 214.171,257.839 211.960,257.329 211.178 C 256.818 210.397,256.400 209.652,256.400 209.524 C 256.400 209.396,255.679 208.211,254.798 206.892 C 252.489 203.434,251.628 203.350,248.855 206.310 C 244.751 210.692,244.710 210.776,244.494 215.112 C 244.387 217.250,244.120 219.225,243.901 219.500 C 243.265 220.297,236.955 220.182,236.643 219.367 C 236.327 218.544,236.336 165.680,236.652 164.500 C 236.979 163.280,242.646 163.125,243.716 164.307 M58.615 178.366 C 57.744 178.825,56.748 179.200,56.402 179.200 C 51.501 179.200,46.238 189.429,48.543 194.473 C 48.877 195.203,49.422 196.475,49.755 197.300 C 50.087 198.125,50.536 198.800,50.753 198.800 C 50.969 198.800,51.260 199.160,51.400 199.599 C 51.539 200.039,52.091 200.508,52.627 200.642 C 53.162 200.777,53.600 201.050,53.600 201.250 C 53.600 201.450,54.269 201.925,55.088 202.306 C 55.906 202.688,56.869 203.288,57.228 203.641 C 57.587 203.993,58.798 204.403,59.919 204.551 C 61.040 204.700,62.731 205.265,63.678 205.806 C 64.625 206.347,65.719 206.793,66.109 206.795 C 66.498 206.798,67.022 207.250,67.273 207.800 C 67.523 208.350,67.864 208.800,68.029 208.800 C 68.775 208.800,67.335 211.251,66.461 211.471 C 63.298 212.264,56.648 210.518,54.311 208.280 C 52.322 206.374,46.763 212.148,47.387 215.472 C 47.616 216.690,49.572 218.800,50.473 218.800 C 50.699 218.800,51.419 219.250,52.073 219.800 C 52.826 220.433,53.755 220.800,54.608 220.800 C 55.348 220.800,56.640 221.205,57.477 221.700 C 59.648 222.983,68.210 222.997,70.656 221.722 C 71.523 221.270,72.805 220.775,73.505 220.621 C 75.064 220.278,78.800 217.006,78.800 215.983 C 78.800 215.574,79.089 215.078,79.443 214.880 C 81.243 213.872,81.200 203.746,79.392 203.052 C 79.066 202.927,78.800 202.585,78.800 202.291 C 78.800 201.661,76.507 199.423,75.500 199.070 C 75.115 198.935,74.800 198.658,74.800 198.454 C 74.800 197.924,70.096 195.755,68.214 195.417 C 67.341 195.260,66.171 194.810,65.614 194.418 C 65.056 194.026,64.240 193.587,63.800 193.442 C 62.231 192.926,60.800 191.294,60.800 190.019 L 60.800 188.800 64.786 188.800 C 68.316 188.800,68.819 188.888,69.186 189.573 C 69.413 189.998,70.004 190.469,70.500 190.619 C 70.995 190.769,71.771 191.230,72.224 191.644 C 73.186 192.522,76.096 190.827,76.625 189.081 C 76.772 188.596,77.252 187.806,77.692 187.325 C 80.400 184.365,76.883 179.200,72.160 179.200 C 71.616 179.200,70.738 178.916,70.208 178.568 C 68.517 177.460,60.599 177.322,58.615 178.366 M105.817 177.892 C 105.386 178.001,104.666 178.318,104.217 178.597 C 103.768 178.875,102.779 179.217,102.019 179.357 C 101.260 179.498,100.250 179.977,99.776 180.423 L 98.914 181.233 98.287 180.276 C 97.247 178.689,95.236 178.000,91.645 178.000 L 88.411 178.000 87.339 179.620 L 86.267 181.240 86.285 207.920 C 86.307 239.503,86.092 238.089,90.954 238.610 C 97.469 239.308,98.394 238.039,98.404 228.400 C 98.413 219.758,98.481 219.414,100.024 220.212 C 100.649 220.535,101.519 220.800,101.957 220.800 C 102.396 220.800,103.350 221.149,104.077 221.576 C 106.590 223.051,115.111 222.948,117.297 221.417 C 117.782 221.078,118.559 220.800,119.025 220.800 C 120.763 220.800,127.477 214.724,128.375 212.339 C 128.652 211.602,129.266 210.280,129.739 209.400 C 131.073 206.921,131.044 193.845,129.700 191.288 C 129.205 190.346,128.800 189.325,128.800 189.018 C 128.800 188.712,128.350 187.927,127.800 187.273 C 127.250 186.619,126.800 185.925,126.800 185.730 C 126.800 185.143,122.480 181.200,121.837 181.200 C 121.509 181.200,121.096 180.956,120.920 180.658 C 120.504 179.954,119.052 179.200,118.111 179.200 C 117.703 179.200,116.663 178.840,115.800 178.400 C 114.267 177.618,108.125 177.306,105.817 177.892 M151.596 178.275 C 150.824 178.682,149.474 179.235,148.596 179.504 C 146.662 180.095,141.741 183.725,141.395 184.815 C 141.258 185.247,140.976 185.600,140.769 185.600 C 140.288 185.600,137.658 191.192,137.332 192.905 C 137.197 193.617,136.841 194.686,136.543 195.280 C 135.833 196.693,135.831 202.422,136.541 204.119 C 136.838 204.831,137.207 206.253,137.361 207.278 C 137.515 208.304,137.959 209.561,138.347 210.072 C 138.736 210.582,139.277 211.556,139.549 212.236 C 140.774 215.294,146.715 220.304,149.571 220.687 C 150.467 220.807,151.200 221.040,151.200 221.204 C 151.200 222.805,162.246 223.227,165.000 221.731 C 165.880 221.253,167.301 220.765,168.157 220.647 C 169.014 220.528,170.106 220.065,170.583 219.616 C 171.061 219.167,171.620 218.794,171.826 218.787 C 173.813 218.720,177.449 213.382,176.213 212.346 C 175.855 212.046,175.166 211.406,174.681 210.926 C 171.340 207.610,168.745 206.721,167.307 208.400 C 166.930 208.840,166.417 209.200,166.167 209.200 C 165.917 209.200,165.016 209.672,164.166 210.249 C 162.161 211.610,155.842 211.905,154.511 210.700 C 154.085 210.315,153.560 210.000,153.343 210.000 C 152.676 210.000,150.907 207.879,150.258 206.300 L 149.641 204.800 162.520 204.799 C 179.439 204.799,179.070 204.973,178.561 197.200 C 178.389 194.574,178.079 192.991,177.556 192.077 C 177.140 191.350,176.800 190.328,176.800 189.808 C 176.800 189.287,176.350 188.327,175.800 187.673 C 175.250 187.019,174.800 186.218,174.800 185.893 C 174.800 185.255,172.056 182.569,170.166 181.357 C 169.524 180.947,168.784 180.405,168.520 180.153 C 168.255 179.902,167.355 179.571,166.520 179.419 C 165.684 179.266,164.568 178.862,164.039 178.521 C 162.446 177.494,153.414 177.315,151.596 178.275 M200.200 177.940 C 199.760 178.107,198.731 178.549,197.913 178.922 C 197.095 179.295,196.083 179.600,195.664 179.600 C 194.871 179.600,190.329 183.002,189.087 184.525 C 187.373 186.630,185.664 189.501,185.410 190.704 C 185.259 191.421,184.834 192.591,184.467 193.304 C 183.516 195.152,183.505 205.159,184.453 207.200 C 184.810 207.970,185.404 209.441,185.772 210.468 C 186.141 211.496,186.703 212.553,187.021 212.817 C 187.339 213.082,187.600 213.466,187.600 213.670 C 187.600 214.144,189.706 216.800,190.082 216.800 C 190.237 216.800,190.799 217.205,191.330 217.700 C 193.554 219.771,194.513 220.384,195.917 220.636 C 196.733 220.782,197.708 221.170,198.085 221.499 C 199.841 223.032,209.522 222.940,210.818 221.378 C 211.082 221.060,211.845 220.800,212.514 220.800 C 213.183 220.800,214.511 220.342,215.465 219.783 C 216.722 219.046,217.200 218.919,217.200 219.321 C 217.200 222.018,223.701 223.164,226.852 221.023 C 228.743 219.738,228.687 220.460,228.593 198.629 L 228.515 180.258 227.251 179.129 C 225.417 177.490,220.903 177.505,217.440 179.161 C 215.315 180.178,214.976 180.236,214.040 179.748 C 213.468 179.449,212.545 179.204,211.989 179.202 C 211.433 179.201,210.533 178.888,209.989 178.507 C 208.919 177.756,201.775 177.343,200.200 177.940 M209.600 180.197 C 211.470 180.573,213.270 181.114,213.600 181.400 C 213.930 181.686,214.877 182.200,215.705 182.542 L 217.211 183.164 217.907 181.682 L 218.604 180.200 221.802 180.104 C 227.018 179.947,226.581 178.377,226.709 197.717 C 226.864 221.253,227.175 219.804,221.911 220.063 L 218.823 220.214 218.572 219.007 C 218.077 216.624,217.270 215.806,216.266 216.669 C 205.507 225.924,188.951 219.616,185.981 205.130 C 184.182 196.360,188.402 184.377,193.903 182.631 C 194.319 182.499,195.010 182.063,195.440 181.663 C 195.870 181.263,197.656 180.623,199.410 180.240 C 201.165 179.857,203.140 179.406,203.800 179.236 C 204.460 179.067,205.270 179.060,205.600 179.221 C 205.930 179.382,207.730 179.821,209.600 180.197 M67.317 179.772 C 68.903 180.086,70.965 180.462,71.900 180.607 C 72.835 180.752,73.600 181.001,73.600 181.162 C 73.600 181.322,74.333 181.864,75.228 182.368 C 77.026 183.378,77.838 184.752,77.022 185.401 C 76.744 185.622,76.146 186.522,75.692 187.401 C 74.579 189.557,73.637 190.096,72.038 189.492 C 71.357 189.235,70.800 188.899,70.800 188.744 C 70.800 187.517,62.601 186.536,60.721 187.538 C 57.552 189.227,58.591 193.391,62.490 194.629 C 62.982 194.785,63.838 195.230,64.392 195.619 C 64.947 196.007,66.057 196.437,66.860 196.573 C 67.663 196.710,68.528 197.072,68.783 197.380 C 69.038 197.687,70.136 198.166,71.223 198.445 C 72.310 198.723,73.200 199.093,73.200 199.265 C 73.200 199.438,73.778 199.879,74.485 200.244 C 79.670 202.925,80.692 210.851,76.555 216.291 C 73.566 220.220,66.771 221.564,57.800 219.999 C 54.280 219.385,48.800 216.295,48.800 214.925 C 48.800 214.098,50.971 210.830,51.680 210.589 C 52.053 210.463,52.485 209.963,52.639 209.480 L 52.918 208.600 53.320 209.500 C 53.541 209.995,53.940 210.400,54.207 210.400 C 54.474 210.400,55.121 210.737,55.646 211.149 C 59.795 214.408,68.916 213.851,70.111 210.267 C 70.863 208.012,67.161 204.891,62.276 203.661 C 60.534 203.222,57.386 201.723,54.168 199.800 C 53.039 199.125,52.275 198.180,50.887 195.738 C 49.526 193.345,50.003 186.267,51.630 184.706 C 52.028 184.325,52.499 183.778,52.677 183.492 C 53.356 182.401,57.067 180.455,59.000 180.177 C 60.100 180.019,61.360 179.745,61.800 179.570 C 62.987 179.096,64.120 179.138,67.317 179.772 M114.428 180.006 C 134.638 184.124,134.712 216.551,114.519 220.209 C 109.339 221.148,103.455 220.416,100.855 218.511 C 99.606 217.595,97.169 216.698,96.835 217.031 C 96.706 217.159,96.510 221.294,96.400 226.219 C 96.162 236.896,96.303 236.565,91.978 236.565 C 87.711 236.565,87.992 238.796,88.111 205.868 C 88.214 177.383,87.783 179.990,92.376 180.013 C 95.260 180.027,96.249 180.512,96.461 182.016 C 96.653 183.373,98.728 183.186,101.220 181.587 C 102.238 180.934,103.414 180.397,103.835 180.392 C 104.256 180.388,105.500 180.134,106.600 179.828 C 109.329 179.069,109.893 179.082,114.428 180.006 M162.000 179.962 C 171.024 181.688,176.006 187.786,176.980 198.298 C 177.241 201.118,177.218 201.223,176.139 202.151 L 175.029 203.105 162.015 203.166 C 146.995 203.235,147.004 203.233,147.940 206.356 C 149.979 213.164,163.815 215.277,168.447 209.488 C 169.152 208.607,169.772 208.922,173.448 212.029 C 175.430 213.704,174.340 215.411,169.407 218.360 C 160.292 223.809,143.151 219.139,140.363 210.448 C 140.108 209.652,139.638 208.701,139.320 208.336 C 137.829 206.626,137.870 193.350,139.372 191.600 C 139.655 191.270,140.088 190.402,140.333 189.670 C 140.578 188.939,141.234 187.800,141.790 187.139 C 142.345 186.479,142.800 185.817,142.800 185.667 C 142.800 185.518,143.565 184.806,144.500 184.084 C 150.329 179.586,154.676 178.562,162.000 179.962 M107.796 187.238 C 107.138 187.395,105.773 187.638,104.763 187.777 C 96.650 188.895,93.438 201.790,99.474 209.011 C 102.545 212.684,110.959 214.205,114.350 211.700 C 115.019 211.205,115.710 210.797,115.884 210.793 C 116.230 210.785,118.800 207.804,118.800 207.411 C 118.800 207.277,119.205 206.620,119.700 205.950 C 121.088 204.072,121.028 196.606,119.604 194.000 C 117.035 189.299,111.773 186.285,107.796 187.238 M154.424 187.668 C 150.363 188.447,146.322 193.919,148.411 195.810 C 148.942 196.290,150.606 196.400,157.351 196.400 C 168.449 196.400,169.336 195.939,166.584 191.600 C 164.227 187.886,160.154 186.568,154.424 187.668 M202.961 187.594 C 191.405 190.017,191.156 209.560,202.645 212.453 C 206.973 213.543,214.800 211.561,214.800 209.375 C 214.800 209.106,215.055 208.788,215.366 208.668 C 216.690 208.160,218.114 204.321,218.307 200.738 C 218.790 191.787,211.744 185.752,202.961 187.594 M113.243 189.700 C 120.325 195.151,121.352 201.639,116.161 208.145 C 115.522 208.945,114.803 209.600,114.562 209.600 C 114.321 209.600,113.798 209.960,113.400 210.400 C 112.044 211.899,105.730 211.564,103.053 209.851 C 97.226 206.124,96.454 196.475,101.600 191.701 C 102.370 190.987,103.360 190.060,103.800 189.642 C 105.084 188.421,111.634 188.462,113.243 189.700 M162.400 189.800 C 162.917 190.350,163.539 190.800,163.783 190.800 C 164.464 190.800,165.588 192.961,165.359 193.830 C 165.170 194.550,164.691 194.606,158.035 194.684 L 150.914 194.768 150.466 193.784 C 150.191 193.181,150.169 192.800,150.409 192.800 C 150.624 192.800,150.800 192.443,150.800 192.008 C 150.800 191.504,151.151 191.127,151.762 190.974 C 152.291 190.841,153.133 190.298,153.632 189.766 C 155.021 188.288,161.001 188.311,162.400 189.800 M210.873 189.800 C 211.527 190.350,212.318 190.800,212.631 190.800 C 212.944 190.800,213.200 190.989,213.200 191.219 C 213.200 191.450,213.620 192.035,214.134 192.519 C 214.963 193.301,216.011 196.251,216.674 199.671 C 218.133 207.187,207.574 214.544,201.444 210.282 C 200.588 209.687,199.643 209.200,199.344 209.200 C 199.045 209.200,198.800 208.961,198.800 208.670 C 198.800 208.378,198.366 207.732,197.836 207.234 C 194.713 204.300,196.598 190.813,200.134 190.798 C 200.390 190.797,201.140 190.353,201.800 189.812 C 203.604 188.334,209.121 188.326,210.873 189.800 " stroke="none" fill="#7e511c" fill-rule="evenodd"></path></g></svg>